#!OML:ASF H:\Dans Jumps\Project 1\Capture day 1\Session 1\subject.ASF
:FULLY-SPECIFIED
:DEGREES
297
root 0.344494 17.3235 -0.0549773 3.48733 0.99416 -1.56203
lowerback 8.16216 -0.0403878 -1.17784
upperback 6.07429 -0.133892 1.94223
thorax 1.72101 -0.140719 2.67601
lowerneck -11.2189 0.0392061 -1.04445
upperneck 27.7527 0.0683585 0.798504
head 10.7602 0.0182169 0.475803
rclavicle -9.93923e-016 -6.75868e-015
rhumerus -23.5795 -18.7336 -78.7205
rradius 24.9036
rwrist 30.0192
rhand -20.6707 -25.0008
rfingers 7.12502
rthumb 5.69231 -54.9043
lclavicle -9.93923e-016 -6.75868e-015
lhumerus -17.6416 22.911 81.7279
lradius 9.34872
lwrist -6.04214
lhand -25.4382 -7.45379
lfingers 7.12502
lthumb 1.08838 22.5232
rfemur -36.504 -5.78086 22.2587
rtibia 26.1236
rfoot 10.4233 1.6824
rtoes 5.36865
lfemur -33.1629 5.5586 -18.2644
ltibia 22.5501
lfoot -2.92569 3.72515
ltoes -16.1067
298
root 0.350387 17.0666 0.17284 2.45102 0.907586 -1.6363
lowerback 8.53431 -0.0137288 -1.11294
upperback 6.07882 -0.0955594 1.94439
thorax 1.51878 -0.117666 2.64041
lowerneck -11.1803 0.00605827 -1.04943
upperneck 28.2873 0.00566819 0.849657
head 10.9547 -0.00580965 0.489724
rclavicle -3.8763e-015 -4.77083e-015
rhumerus -23.7471 -19.4644 -78.4194
rradius 24.2754
rwrist 30.8384
rhand -20.705 -25.0726
rfingers 7.12502
rthumb 5.65915 -54.977
lclavicle -3.8763e-015 -4.77083e-015
lhumerus -17.7428 23.3804 81.6396
lradius 8.69613
lwrist -6.35223
lhand -25.8272 -7.13309
lfingers 7.12502
lthumb 0.712672 22.8455
rfemur -36.3443 -5.70789 22.3786
rtibia 28.3882
rfoot 8.15566 2.95329
rtoes 7.03167
lfemur -33.4216 5.10886 -17.9866
ltibia 25.2294
lfoot -3.49272 3.91805
ltoes -18.1639
299
root 0.354738 16.8122 0.375717 1.35816 0.846865 -1.64827
lowerback 9.15893 0.00819865 -1.1172
upperback 6.0613 -0.0678281 1.92453
thorax 1.15663 -0.0998571 2.62234
lowerneck -11.1936 -0.0256853 -1.04305
upperneck 28.7738 -0.0609004 0.911425
head 11.1433 -0.0287762 0.50502
rclavicle 8.15017e-015 1.90833e-014
rhumerus -23.8282 -20.2326 -78.1662
rradius 23.6879
rwrist 31.684
rhand -20.8368 -25.1984
rfingers 7.12502
rthumb 5.53188 -55.1062
lclavicle 8.15017e-015 1.90833e-014
lhumerus -17.8529 23.8324 81.5246
lradius 8.24187
lwrist -6.52141
lhand -26.2087 -6.89157
lfingers 7.12502
lthumb 0.344189 23.0879
rfemur -36.5614 -5.47842 22.4053
rtibia 31.6861
rfoot 5.20477 3.56853
rtoes 9.18829
lfemur -34.1021 4.63153 -17.7897
ltibia 28.8555
lfoot -3.45856 3.792
ltoes -19.0638
300
root 0.356033 16.5672 0.548373 0.286649 0.818339 -1.58813
lowerback 9.99561 0.0344049 -1.21044
upperback 6.03353 -0.0422376 1.8856
thorax 0.669761 -0.0837792 2.63551
lowerneck -11.2851 -0.0571537 -1.00204
upperneck 29.1672 -0.124389 0.937959
head 11.3138 -0.0502754 0.501579
rclavicle 2.18663e-015 -9.54166e-015
rhumerus -23.7563 -21.0816 -77.9828
rradius 23.1396
rwrist 32.5853
rhand -21.0862 -25.4106
rfingers 7.12502
rthumb 5.29114 -55.3245
lclavicle 2.18663e-015 -9.54166e-015
lhumerus -17.8992 24.2911 81.4206
lradius 7.99688
lwrist -6.53259
lhand -26.5837 -6.78385
lfingers 7.12502
lthumb -0.0180253 23.1959
rfemur -37.2693 -5.03596 22.303
rtibia 35.8844
rfoot 2.20183 3.28117
rtoes 11.9614
lfemur -35.2254 4.13736 -17.6569
ltibia 33.2364
lfoot -3.16822 3.36439
ltoes -18.001
301
root 0.353208 16.3224 0.69805 -0.663102 0.749342 -1.48617
lowerback 10.9015 0.0931903 -1.3792
upperback 6.02555 0.0166348 1.83962
thorax 0.166231 -0.0523889 2.68081
lowerneck -11.4743 -0.0887468 -0.93878
upperneck 29.4088 -0.18203 0.930517
head 11.4465 -0.0701659 0.481842
rclavicle -3.37934e-015 5.36719e-015
rhumerus -23.4678 -21.9732 -77.916
rradius 22.661
rwrist 33.5193
rhand -21.4323 -25.7176
rfingers 7.12502
rthumb 4.95689 -55.6397
lclavicle -3.37934e-015 5.36719e-015
lhumerus -17.797 24.757 81.3804
lradius 7.95065
lwrist -6.3904
lhand -27.0277 -6.91643
lfingers 7.12502
lthumb -0.446811 23.0629
rfemur -38.5184 -4.33539 22.1147
rtibia 40.6435
rfoot -0.385033 2.36372
rtoes 14.8216
lfemur -36.7466 3.6849 -17.5347
ltibia 38.0287
lfoot -2.86399 2.87369
ltoes -14.697
302
root 0.347338 16.0799 0.834542 -1.49217 0.567094 -1.33334
lowerback 11.8002 0.208928 -1.634
upperback 6.0625 0.137291 1.78989
thorax -0.287898 0.0076709 2.76267
lowerneck -11.7003 -0.113255 -0.873198
upperneck 29.4421 -0.217688 0.885733
head 11.5059 -0.0840288 0.449712
rclavicle 2.48481e-016 -1.98785e-015
rhumerus -22.9964 -22.8233 -77.9742
rradius 22.296
rwrist 34.4669
rhand -21.8055 -26.0848
rfingers 7.12502
rthumb 4.59659 -56.0149
lclavicle 2.48481e-016 -1.98785e-015
lhumerus -17.5651 25.2388 81.4099
lradius 8.10995
lwrist -6.13092
lhand -27.4878 -7.29829
lfingers 7.12502
lthumb -0.891192 22.6796
rfemur -40.115 -3.45973 21.847
rtibia 45.4588
rfoot -2.35767 1.3316
rtoes 16.8865
lfemur -38.4341 3.38673 -17.4422
ltibia 42.8022
lfoot -2.80406 2.5207
ltoes -10.3901
303
root 0.339416 15.8535 0.966784 -2.22389 0.23277 -1.13542
lowerback 12.5987 0.390753 -1.96318
upperback 6.16165 0.331566 1.73988
thorax -0.626191 0.10152 2.87429
lowerneck -11.868 -0.122801 -0.806089
upperneck 29.2275 -0.218051 0.795999
head 11.4565 -0.0872689 0.40425
rclavicle -1.98785e-016 -4.96962e-015
rhumerus -22.4114 -23.4634 -78.1665
rradius 22.0914
rwrist 35.3128
rhand -22.1311 -26.4362
rfingers 7.12502
rthumb 4.28216 -56.3729
lclavicle -1.98785e-016 -4.96962e-015
lhumerus -17.2723 25.7342 81.4807
lradius 8.48474
lwrist -5.84268
lhand -27.8899 -7.84778
lfingers 7.12502
lthumb -1.27957 22.1281
rfemur -41.764 -2.50041 21.5165
rtibia 49.84
rfoot -3.75004 0.638491
rtoes 18.0702
lfemur -40.006 3.30977 -17.3843
ltibia 47.1577
lfoot -3.21886 2.45715
ltoes -6.36201
304
root 0.332586 15.6607 1.10017 -2.89605 -0.244148 -0.916559
lowerback 13.2106 0.620989 -2.30878
upperback 6.33829 0.584026 1.69404
thorax -0.786886 0.220932 2.98839
lowerneck -11.9657 -0.106673 -0.752395
upperneck 28.8563 -0.170978 0.680868
head 11.3321 -0.073735 0.357604
rclavicle -3.42904e-015 -5.1684e-015
rhumerus -21.7526 -23.7625 -78.4856
rradius 22.0347
rwrist 35.9656
rhand -22.3481 -26.7025
rfingers 7.12502
rthumb 4.07265 -56.6434
lclavicle -3.42904e-015 -5.1684e-015
lhumerus -16.9629 26.2515 81.5705
lradius 9.02245
lwrist -5.65769
lhand -28.1773 -8.54041
lfingers 7.12502
lthumb -1.55711 21.4337
rfemur -43.1242 -1.5784 21.1874
rtibia 53.3532
rfoot -4.85466 0.275712
rtoes 17.8932
lfemur -41.1871 3.47381 -17.3733
ltibia 50.8009
lfoot -3.96361 2.74237
ltoes -3.51812
305
root 0.329816 15.5084 1.23714 -3.5665 -0.789876 -0.718711
lowerback 13.6564 0.861872 -2.58928
upperback 6.57046 0.857271 1.66532
thorax -0.802175 0.348605 3.07821
lowerneck -11.9672 -0.0590555 -0.715894
upperneck 28.4656 -0.0700011 0.544916
head 11.1816 -0.0401607 0.313561
rclavicle 1.59028e-015 9.93923e-016
rhumerus -21.0956 -23.5498 -78.9015
rradius 22.1278
rwrist 36.2524
rhand -22.4259 -26.8339
rfingers 7.12502
rthumb 3.99748 -56.7761
lclavicle 1.59028e-015 9.93923e-016
lhumerus -16.6977 26.7879 81.6597
lradius 9.63321
lwrist -5.72139
lhand -28.2882 -9.27037
lfingers 7.12502
lthumb -1.66426 20.7029
rfemur -43.9185 -0.844672 20.9344
rtibia 55.8683
rfoot -5.812 0.229142
rtoes 16.922
lfemur -41.854 3.82688 -17.393
ltibia 53.6568
lfoot -4.80836 3.26387
ltoes -3.33206
306
root 0.333367 15.3882 1.37791 -4.24456 -1.29041 -0.59947
lowerback 13.9749 1.06715 -2.70309
upperback 6.82303 1.10517 1.66004
thorax -0.725391 0.464678 3.10071
lowerneck -11.9156 0.0155673 -0.661553
upperneck 28.2259 0.0715474 0.381578
head 11.0789 0.0105241 0.262355
rclavicle -7.55382e-015 -8.15017e-015
rhumerus -20.458 -22.868 -79.3749
rradius 22.3087
rwrist 36.1851
rhand -22.3748 -26.8693
rfingers 7.12502
rthumb 4.04687 -56.8107
lclavicle -7.55382e-015 -8.15017e-015
lhumerus -16.4707 27.3185 81.7534
lradius 10.2077
lwrist -6.17493
lhand -28.214 -9.95212
lfingers 7.12502
lthumb -1.59259 20.0217
rfemur -44.0622 -0.377653 20.832
rtibia 57.2645
rfoot -6.51709 0.25034
rtoes 15.3276
lfemur -41.9695 4.29506 -17.4134
ltibia 55.6001
lfoot -5.54231 3.842
ltoes -4.86411
307
root 0.344033 15.2909 1.51796 -4.92242 -1.66711 -0.576705
lowerback 14.2417 1.20691 -2.61191
upperback 7.05805 1.29337 1.67347
thorax -0.632298 0.555265 3.03471
lowerneck -11.8547 0.103094 -0.600485
upperneck 28.2693 0.222072 0.243457
head 11.0825 0.0687994 0.221063
rclavicle -7.25564e-015 -4.96962e-015
rhumerus -19.8258 -21.7914 -79.8791
rradius 22.5116
rwrist 35.851
rhand -22.2427 -26.8255
rfingers 7.12502
rthumb 4.17437 -56.7644
lclavicle -7.25564e-015 -4.96962e-015
lhumerus -15.8393 24.9975 82.7772
lradius 10.6574
lwrist -4.19368
lhand -28.4442 -10.2836
lfingers 7.12502
lthumb -1.81496 19.6885
rfemur -43.8287 -0.243018 20.8922
rtibia 58.1833
rfoot -7.22878 0.234297
rtoes 13.2837
lfemur -41.7707 4.78914 -17.408
ltibia 57.1658
lfoot -6.31476 4.3444
ltoes -6.32322
308
root 0.357772 15.3107 1.62135 -5.54477 -1.86367 -0.604494
lowerback 14.4943 1.27311 -2.38526
upperback 7.2254 1.40293 1.6902
thorax -0.594197 0.611977 2.90602
lowerneck -11.8345 0.190812 -0.511175
upperneck 28.6659 0.360609 0.129092
head 11.2299 0.126756 0.182776
rclavicle 9.54166e-015 1.35174e-014
rhumerus -19.1955 -20.4816 -80.3754
rradius 22.6789
rwrist 35.4372
rhand -22.0917 -26.757
rfingers 7.12502
rthumb 4.32021 -56.6929
lclavicle 9.54166e-015 1.35174e-014
lhumerus -15.2776 22.9048 83.684
lradius 10.9503
lwrist -2.96316
lhand -28.5449 -10.3911
lfingers 7.12502
lthumb -1.91217 19.5801
rfemur -43.0187 -0.382279 21.0193
rtibia 58.5404
rfoot -7.97662 0.141398
rtoes 11.293
lfemur -41.0633 5.18809 -17.4011
ltibia 58.1612
lfoot -7.24394 4.73776
ltoes -7.15906
309
root 0.374258 15.2352 1.75382 -5.98443 -1.91118 -0.67878
lowerback 14.6315 1.28077 -2.08988
upperback 7.30986 1.44785 1.70804
thorax -0.575814 0.639943 2.74972
lowerneck -11.8979 0.264751 -0.412334
upperneck 29.3545 0.459659 0.0817263
head 11.5089 0.175205 0.162966
rclavicle 1.46107e-014 1.61016e-014
rhumerus -18.5168 -19.1032 -80.863
rradius 22.7942
rwrist 35.1087
rhand -21.9451 -26.6902
rfingers 7.12502
rthumb 4.46179 -56.6232
lclavicle 1.46107e-014 1.61016e-014
lhumerus -14.7309 21.0992 84.4759
lradius 11.102
lwrist -2.46203
lhand -28.5315 -10.2847
lfingers 7.12502
lthumb -1.89925 19.6866
rfemur -42.774 -0.656047 21.158
rtibia 59.4133
rfoot -8.76839 -0.0233358
rtoes 9.85349
lfemur -40.9018 5.46719 -17.3521
ltibia 59.504
lfoot -8.22099 5.07283
ltoes -7.54799
